<svg width="16" height="16" viewBox="0 0 24 24" fill="none" xmlns="http://www.w3.org/2000/svg">
  <path d="M17.472 14.382C17.137 14.237 15.913 13.7 15.651 13.618C15.389 13.536 15.213 13.5 15.037 13.782C14.861 14.064 14.303 14.728 14.151 14.908C13.999 15.088 13.847 15.111 13.512 14.965C13.177 14.819 12.2 14.431 11.198 13.516C10.297 12.709 9.714 11.792 9.568 11.457C9.422 11.122 9.642 10.967 9.787 10.82C9.922 10.675 10.078 10.48 10.202 10.297C10.326 10.114 10.386 9.998 10.484 9.817C10.582 9.636 10.528 9.474 10.466 9.328C10.404 9.182 9.956 8.042 9.749 7.536C9.543 7.03 9.338 7.094 9.162 7.063C8.986 7.032 8.808 7.003 8.631 7.011C8.455 7.018 8.284 7.007 8.116 7.069C7.948 7.131 7.508 7.326 7.258 7.59C7.008 7.854 6.594 8.244 6.506 9.001C6.419 9.758 6.632 10.767 7.163 11.635C7.694 12.503 8.555 13.365 9.038 13.753C9.521 14.141 10.27 14.64 11.021 14.883C11.772 15.126 12.146 15.221 12.505 15.224C12.864 15.227 13.727 15.17 14.313 14.995C14.9 14.82 15.807 14.394 15.958 13.871C16.109 13.348 16.099 13.137 16.052 13.043C16.005 12.949 15.807 12.877 15.473 12.733V12.733ZM12.002 2C6.485 2 2 6.485 2 12.002C2 13.936 2.648 15.735 3.8 17.153L2 22L6.902 20.202C8.321 21.354 10.119 22 12.002 22C17.519 22 22 17.519 22 12.002C22 6.485 17.519 2 12.002 2V2Z" fill="white"/>
</svg>
